<?xml version="1.0" encoding="UTF-8" standalone="no"?>
<!-- Generator: Adobe Illustrator 22.1.0, SVG Export Plug-In . SVG Version: 6.00 Build 0)  -->

<svg
   version="1.1"
   id="Layer_1"
   x="0px"
   y="0px"
   viewBox="0 0 5000 5000"
   style="enable-background:new 0 0 5000 5000;"
   xml:space="preserve"
   sodipodi:docname="cart-6930472.svg"
   inkscape:version="1.1.1 (3bf5ae0d25, 2021-09-20)"
   xmlns:inkscape="http://www.inkscape.org/namespaces/inkscape"
   xmlns:sodipodi="http://sodipodi.sourceforge.net/DTD/sodipodi-0.dtd"
   xmlns="http://www.w3.org/2000/svg"
   xmlns:svg="http://www.w3.org/2000/svg"><defs
   id="defs9" /><sodipodi:namedview
   id="namedview7"
   pagecolor="#ffffff"
   bordercolor="#666666"
   borderopacity="1.0"
   inkscape:pageshadow="2"
   inkscape:pageopacity="0.0"
   inkscape:pagecheckerboard="0"
   showgrid="false"
   inkscape:zoom="0.1664"
   inkscape:cx="2496.9952"
   inkscape:cy="2503.0048"
   inkscape:window-width="1920"
   inkscape:window-height="1017"
   inkscape:window-x="-8"
   inkscape:window-y="-8"
   inkscape:window-maximized="1"
   inkscape:current-layer="Layer_1" />
<style
   type="text/css"
   id="style2">
	.st0{fill:#1A1A1A;}
</style>
<path
   class="st0"
   d="M3712.8,3701.7c0,133.5-111.3,244.8-244.8,244.8H1509.7c-133.5,0-244.8-111.3-244.8-244.8v-1758  c0-111.3,111.3-222.5,244.8-222.5h1980.5c133.5,0,244.8,111.3,244.8,244.8v1735.8L3712.8,3701.7z M2488.9,1053.5  c267,0,467.3,200.3,511.8,445.1H1977C2021.6,1253.8,2221.8,1053.5,2488.9,1053.5z M3468,1498.6h-244.8  c-44.5-378.3-356.1-667.6-734.4-667.6s-689.9,289.3-734.4,667.6h-244.8c-267,0-467.3,200.3-467.3,467.3v1758  c0,244.8,200.3,445.1,467.3,445.1h1980.5c244.8,0,467.3-200.3,467.3-467.3v-1758C3935.3,1698.9,3735.1,1498.6,3468,1498.6z"
   id="path4" />
<path
   style="fill:#000000;stroke:#000000;stroke-width:6.00962"
   d="m 1406.8567,4154.8437 c -87.9223,-18.9557 -159.0294,-56.4332 -223.792,-117.9514 -78.3733,-74.4469 -123.1559,-165.491 -134.7673,-273.9853 -4.0724,-38.0511 -5.5615,-368.8464 -4.3325,-962.4262 l 1.8727,-904.4471 13.5349,-48.077 c 38.7231,-137.5468 120.209,-239.1366 238.2078,-296.9777 84.7188,-41.5277 100.5352,-44.0913 289.7853,-46.969 l 169.0964,-2.5712 9.6372,-52.6762 c 49.0623,-268.1702 241.2661,-492.17104 495.3489,-577.29659 292.9549,-98.14892 620.7697,5.9491 809.1453,256.94519 69.8858,93.1174 126.1494,222.4415 142.4829,327.5022 l 7.0786,45.5314 168.7687,2.4621 c 152.0961,2.2188 173.1196,3.7655 212.811,15.6555 186.5629,55.8878 321.9137,211.1472 349.3048,400.6837 7.9989,55.3496 8.2766,1745.846 0.2992,1821.5497 -20.1114,190.8543 -140.5182,339.1304 -327.5405,403.3534 l -48.0769,16.5095 -1063.702,1.0618 c -921.6946,0.9201 -1069.237,-0.1314 -1105.1625,-7.8768 z m 2130.2136,-216.0712 c 90.124,-26.3537 157.1054,-102.9947 175.2408,-200.5128 4.2665,-22.9424 9.7176,-36.3366 14.7878,-36.3366 6.6721,0 7.7633,-152.724 6.4513,-902.9447 l -1.579,-902.9447 -17.8258,-36.0577 c -24.2151,-48.9821 -71.4222,-95.0973 -121.7546,-118.9387 l -40.7081,-19.2825 H 2500 1448.3173 l -40.6161,19.2395 c -47.8543,22.6681 -98.3567,68.2475 -120.309,108.581 -8.6188,15.8356 -18.5092,46.2885 -21.9788,67.6733 -8.1451,50.203 -8.487,1750.7179 -0.3645,1813.2526 12.9101,99.3946 74.1521,173.4579 171.1707,207.0062 28.1126,9.7211 98.2482,10.4306 1049.168,10.6137 913.6499,0.1761 1022.4173,-0.7909 1051.6827,-9.3486 z M 3001.8029,1490.6948 c 0,-6.4399 -7.0381,-34.1593 -15.6401,-61.5985 -55.6279,-177.4446 -189.3546,-311.022 -361.2502,-360.8471 -61.9196,-17.9478 -204.8654,-19.151 -266.1386,-2.2402 -144.0926,39.7682 -263.3753,139.3943 -332.8295,277.9827 -20.1674,40.2419 -41.0717,99.6586 -48.8617,138.8809 l -3.8791,19.5312 h 514.2995 c 505.7512,0 514.2997,-0.1946 514.2997,-11.709 z"
   id="path85" /></svg>
