<?xml version="1.0" standalone="no"?>
<!DOCTYPE svg PUBLIC "-//W3C//DTD SVG 20010904//EN"
 "http://www.w3.org/TR/2001/REC-SVG-20010904/DTD/svg10.dtd">
<svg version="1.0" xmlns="http://www.w3.org/2000/svg"
 width="300.000000pt" height="301.000000pt" viewBox="0 0 300.000000 301.000000"
 preserveAspectRatio="xMidYMid meet">
<metadata>
Created by potrace 1.10, written by Peter Selinger 2001-2011
</metadata>
<g transform="translate(0.000000,301.000000) scale(0.100000,-0.100000)"
fill="#ffffff" stroke="none">
<path d="M1422 2598 c-8 -8 -12 -48 -12 -114 l0 -102 -45 -6 c-25 -4 -83 -20
-129 -36 -74 -25 -87 -26 -97 -14 -10 12 -8 18 8 29 30 21 36 60 17 101 -19
39 -46 61 -84 65 -32 4 -120 -55 -120 -80 0 -11 25 -56 55 -101 31 -45 51 -79
45 -75 -5 3 -10 0 -10 -8 0 -7 -11 -19 -24 -25 -32 -14 -65 -43 -137 -117
-147 -152 -225 -335 -238 -555 -4 -69 -4 -133 1 -142 4 -9 8 -29 8 -45 0 -15
7 -50 16 -78 9 -27 17 -54 18 -60 1 -5 10 -27 19 -49 20 -45 20 -46 8 -46 -23
0 -122 -67 -127 -86 -12 -46 61 -128 105 -119 9 2 23 5 31 7 8 1 30 19 48 38
27 29 34 32 42 20 12 -18 13 -30 2 -30 -4 0 -33 -23 -65 -50 -52 -47 -55 -53
-45 -75 6 -15 20 -25 31 -25 21 0 123 73 130 93 3 9 9 8 21 -2 16 -13 15 -15
-13 -27 -17 -7 -31 -17 -31 -23 0 -5 -13 -22 -30 -38 -36 -33 -38 -62 -7 -91
35 -32 69 -37 100 -12 15 12 27 26 27 32 0 5 11 23 24 38 20 25 26 27 41 16
16 -12 16 -13 1 -19 -17 -7 -22 -53 -6 -59 5 -2 3 -22 -7 -49 -34 -95 35 -125
74 -31 8 20 20 32 33 32 10 0 26 10 34 22 21 29 20 23 -5 -58 -17 -54 -19 -72
-10 -92 10 -20 16 -23 42 -18 20 4 31 1 35 -8 16 -41 74 -13 74 35 0 28 32
109 43 109 10 0 9 -10 -9 -71 -24 -79 -25 -97 -2 -113 30 -21 57 -9 67 33 6
20 16 57 23 84 20 76 35 59 24 -28 -8 -65 -7 -77 8 -94 26 -29 108 -23 135 10
11 13 18 31 16 39 -3 9 -7 38 -9 66 -4 49 -4 51 20 46 14 -2 24 -11 24 -21 0
-33 22 -93 41 -112 29 -29 84 -25 118 8 29 29 30 43 16 131 -8 45 2 55 23 22
7 -11 20 -20 30 -20 12 0 26 -17 41 -50 18 -39 28 -50 46 -50 41 0 51 25 30
81 -14 40 -15 55 -6 75 6 14 9 31 5 37 -10 21 57 -57 74 -86 17 -29 49 -36 70
-15 20 20 14 42 -28 101 -22 30 -40 59 -40 63 0 7 31 33 41 34 4 0 9 -18 13
-39 12 -77 111 -111 165 -57 50 50 26 150 -41 172 -11 3 -18 15 -18 29 0 28
15 41 23 21 7 -17 123 -96 141 -96 20 0 36 22 36 52 0 20 4 26 14 22 18 -7 50
40 42 61 -3 8 -38 37 -79 63 l-73 48 24 59 c27 65 50 144 57 189 2 15 10 35
17 44 7 9 9 13 3 10 -6 -4 -9 28 -8 90 4 144 -37 301 -113 440 -37 67 -47 81
-109 150 -46 52 -184 161 -235 187 -45 23 -43 20 -31 44 9 16 18 19 41 14 33
-6 60 10 60 36 0 9 9 22 20 29 22 14 27 54 8 70 -53 43 -128 62 -128 32 0 -5
-6 -15 -12 -22 -7 -8 -28 -43 -47 -79 l-35 -66 -35 9 c-20 5 -43 10 -53 13 -9
2 -38 6 -65 10 -71 10 -80 14 -86 35 -3 11 -17 24 -31 30 -24 9 -26 13 -26 78
0 74 -10 92 -50 92 -14 0 -31 -5 -38 -12z m60 -93 l-5 -85 37 0 c30 0 37 -3
34 -17 -3 -15 -13 -18 -53 -16 -28 1 -53 2 -56 2 -3 1 -5 46 -5 101 l1 100 26
0 27 0 -6 -85z m492 -21 c44 -25 57 -46 36 -59 -5 -3 -21 1 -34 10 -14 9 -30
14 -36 10 -12 -7 -14 -35 -2 -35 5 0 17 -6 27 -14 16 -12 17 -16 6 -30 -12
-14 -15 -14 -38 1 -27 18 -28 18 -58 -32 -10 -16 -45 -12 -45 4 0 8 91 171 95
171 1 0 23 -12 49 -26z m-849 -10 c13 -14 27 -35 31 -46 8 -25 -21 -68 -46
-68 -25 0 -25 -12 0 -35 25 -22 25 -32 1 -44 -16 -9 -26 1 -75 75 -53 79 -63
113 -31 100 8 -3 21 6 29 20 22 32 60 31 91 -2z m555 -130 c189 -35 381 -152
502 -304 220 -278 238 -691 42 -986 -114 -171 -276 -290 -478 -348 -166 -49
-327 -44 -501 14 -213 71 -375 212 -475 415 -71 142 -92 230 -92 385 0 147 20
239 81 364 94 194 231 322 438 411 147 63 318 81 483 49z m-900 -1311 c0 -27
-54 -73 -86 -73 -38 0 -107 87 -78 97 5 2 34 19 64 37 l54 34 23 -36 c12 -20
23 -47 23 -59z m1643 -48 c-6 -17 -57 -19 -115 -6 -21 5 -38 7 -38 6 0 -2 22
-16 50 -32 30 -17 50 -35 50 -45 0 -10 -3 -18 -7 -18 -16 0 -133 84 -133 95 0
29 25 35 85 20 32 -9 60 -14 62 -11 2 2 -18 16 -44 31 -61 35 -58 32 -44 49
10 12 22 8 76 -30 43 -30 62 -50 58 -59z m-243 -46 c0 -5 -4 -9 -10 -9 -5 0
-10 7 -10 16 0 8 5 12 10 9 6 -3 10 -10 10 -16z m-1324 -4 c3 -11 -97 -95
-115 -95 -24 0 -9 27 36 67 46 40 73 50 79 28z m1355 -45 c26 -14 51 -67 44
-91 -10 -30 -46 -59 -74 -59 -14 0 -38 12 -53 27 -36 34 -37 75 -3 108 26 27
54 31 86 15z m-1276 -43 c18 -15 24 -28 20 -40 -9 -23 -21 -22 -28 3 -3 11
-12 20 -21 20 -14 0 -14 -3 1 -35 20 -42 6 -65 -38 -65 -30 0 -67 40 -54 60
10 16 23 12 30 -10 3 -11 13 -20 22 -20 15 0 15 3 -3 61 -5 16 19 49 36 49 5
0 21 -10 35 -23z m1114 -117 c38 -54 45 -80 22 -80 -16 0 -93 111 -87 126 9
24 21 16 65 -46z m-967 17 c37 -17 46 -25 39 -36 -8 -12 -12 -13 -25 -1 -9 7
-18 11 -19 9 -2 -2 -14 -28 -27 -56 -13 -29 -25 -53 -26 -53 -1 0 -9 3 -18 6
-13 5 -12 13 9 55 30 59 31 66 5 74 -21 7 -18 25 3 24 7 0 33 -10 59 -22z
m858 -18 c0 -6 -9 -13 -20 -16 -23 -6 -21 -15 11 -87 13 -30 15 -42 6 -48 -20
-13 -23 -10 -48 51 -19 50 -26 58 -40 50 -24 -12 -29 -11 -29 5 0 7 21 23 48
34 55 24 72 26 72 11z m-684 -39 c2 0 8 -9 14 -20 13 -24 -3 -60 -26 -60 -11
0 -14 -6 -10 -16 19 -50 18 -64 -3 -64 -16 0 -21 6 -21 28 0 15 -5 34 -10 42
-9 13 -11 13 -20 0 -5 -8 -10 -23 -10 -32 0 -19 -8 -22 -27 -10 -10 6 -7 26
13 85 l26 77 35 -15 c20 -8 37 -15 39 -15z m500 -27 c1 -10 4 -39 8 -65 7 -39
5 -49 -13 -67 -12 -12 -32 -21 -46 -21 -29 0 -65 32 -65 58 0 9 -3 34 -6 55
-6 32 -4 37 13 37 17 0 21 -9 26 -50 7 -60 12 -70 37 -70 29 0 32 15 16 74 -7
30 -11 57 -8 60 12 13 38 5 38 -11z m-376 -22 c-1 -3 -9 -35 -19 -71 -15 -53
-22 -66 -41 -68 -19 -3 -21 0 -15 15 4 10 13 41 21 68 9 28 17 56 19 62 4 12
35 7 35 -6z m151 -11 c21 -12 26 -50 7 -50 -9 0 -9 -3 0 -12 7 -7 12 -21 12
-33 0 -33 -20 -45 -73 -45 -44 0 -48 2 -42 20 4 11 6 45 6 75 l0 55 35 0 c20
0 44 -5 55 -10z"/>
<path d="M1045 2440 c-9 -14 18 -50 38 -50 23 0 33 26 17 45 -14 17 -46 20
-55 5z"/>
<path d="M1360 2305 c-172 -38 -290 -103 -410 -224 -208 -211 -281 -491 -204
-786 36 -139 142 -302 263 -401 107 -89 276 -159 426 -177 l41 -5 1 142 c0 77
6 185 13 240 l12 98 -28 29 c-32 34 -151 94 -214 108 -58 13 -282 14 -339 0
-24 -5 -46 -8 -48 -5 -3 3 16 30 43 61 56 65 73 71 224 79 101 6 107 5 158
-22 45 -24 59 -38 85 -88 24 -44 43 -65 75 -82 24 -14 45 -22 47 -20 7 7 34
200 41 291 6 80 5 88 -19 130 -61 103 -235 216 -391 253 -42 10 -76 22 -76 26
0 19 72 38 144 38 65 0 85 -5 150 -35 79 -38 92 -52 120 -130 10 -27 33 -75
50 -105 38 -68 40 -61 34 115 -5 130 -5 130 -57 252 -49 115 -74 213 -55 213
5 0 17 -17 26 -38 10 -20 33 -66 52 -101 35 -65 35 -65 46 -37 5 15 10 32 10
37 0 5 5 9 11 9 8 0 9 -12 4 -37 -24 -118 -23 -272 1 -242 6 8 14 26 17 40 15
61 94 118 194 139 26 6 58 12 71 15 43 10 21 -11 -45 -44 -89 -43 -183 -111
-217 -155 -28 -38 -28 -36 -41 -282 -3 -55 -7 -122 -11 -150 l-5 -49 35 40
c21 23 45 67 57 105 47 140 155 186 387 165 45 -5 82 -12 82 -16 0 -11 -32
-27 -212 -105 -180 -78 -247 -117 -306 -177 -50 -51 -55 -68 -77 -262 -18
-160 -18 -165 -6 -165 11 0 36 63 45 115 10 55 27 78 90 120 45 30 63 36 112
37 147 4 170 -9 74 -43 -70 -24 -139 -72 -216 -149 -93 -92 -112 -133 -116
-258 l-3 -103 75 7 c336 30 622 263 712 579 19 67 23 104 23 225 0 124 -3 156
-23 220 -87 277 -294 481 -562 551 -108 28 -278 35 -370 14z m285 -20 c113
-21 192 -50 271 -97 82 -49 81 -48 165 -133 213 -213 274 -546 157 -843 -11
-28 -24 -52 -27 -52 -4 0 -8 -6 -8 -12 0 -24 -67 -113 -138 -184 -123 -122
-300 -207 -460 -221 l-73 -6 5 93 c3 76 9 100 30 134 30 49 138 155 179 176
16 8 31 18 34 21 8 10 63 36 90 42 14 4 31 16 38 28 12 18 11 24 -2 38 -13 13
-38 16 -114 16 -98 0 -98 0 -156 -40 -32 -22 -61 -46 -63 -52 -13 -34 -18 -5
-11 62 9 89 23 119 76 167 39 36 151 98 176 98 7 0 19 6 25 14 7 8 25 18 41
21 16 4 80 32 142 63 84 43 113 62 113 76 0 32 -66 48 -195 50 -113 1 -116 0
-179 -34 -73 -39 -109 -80 -132 -147 -19 -59 -38 -68 -33 -16 8 89 13 192 14
243 0 54 1 55 63 115 35 33 93 76 130 95 91 47 111 64 104 84 -6 14 -19 17
-68 15 -66 -3 -146 -35 -207 -85 l-34 -28 6 40 c16 115 16 133 0 149 -12 12
-20 13 -27 6 -6 -6 -14 -11 -19 -11 -6 0 -78 114 -78 124 0 9 98 4 165 -9z
m-224 -40 c7 -39 31 -106 84 -232 22 -55 25 -75 23 -155 l-3 -93 -29 74 c-33
85 -52 104 -142 144 -117 51 -285 41 -308 -19 -8 -22 25 -54 55 -54 35 0 189
-62 246 -100 74 -48 145 -118 167 -164 18 -39 18 -51 -9 -254 -7 -57 -15 -106
-18 -108 -7 -8 -77 56 -77 70 0 30 -52 85 -107 111 -52 25 -68 27 -156 26 -54
-1 -109 -6 -123 -11 -13 -5 -28 -9 -32 -8 -23 7 -85 -50 -123 -112 -28 -44
-11 -56 73 -51 228 13 317 3 412 -43 39 -20 82 -44 95 -55 25 -19 25 -19 15
-122 -6 -57 -12 -156 -13 -219 -1 -63 -5 -118 -9 -122 -4 -4 -27 -2 -52 3 -25
6 -57 12 -71 14 -44 6 -171 61 -229 100 -158 105 -267 256 -327 450 -27 89
-24 336 5 420 100 293 284 468 567 540 71 18 78 16 86 -30z"/>
<path d="M688 1057 c-41 -24 -48 -41 -20 -55 35 -19 85 18 75 56 -7 27 -8 27
-55 -1z"/>
<path d="M2140 845 c-20 -24 13 -67 48 -63 33 4 41 32 16 59 -21 23 -47 25
-64 4z m51 -33 c-7 -2 -18 1 -23 6 -8 8 -4 9 13 5 13 -4 18 -8 10 -11z"/>
<path d="M1200 671 c0 -5 -3 -16 -6 -25 -4 -12 0 -16 15 -16 26 0 40 28 20 41
-18 11 -29 11 -29 0z"/>
<path d="M1470 601 c0 -15 6 -21 21 -21 25 0 22 33 -4 38 -12 2 -17 -3 -17
-17z"/>
<path d="M1470 535 c0 -18 5 -25 20 -25 25 0 38 29 19 41 -25 15 -39 10 -39
-16z"/>
</g>
</svg>
