<?xml version="1.0" standalone="no"?>
<!DOCTYPE svg PUBLIC "-//W3C//DTD SVG 20010904//EN"
 "http://www.w3.org/TR/2001/REC-SVG-20010904/DTD/svg10.dtd">
<svg version="1.0" xmlns="http://www.w3.org/2000/svg"
 width="226.000000pt" height="271.000000pt" viewBox="0 0 226.000000 271.000000"
 preserveAspectRatio="xMidYMid meet">
<metadata>
Created by potrace 1.10, written by Peter Selinger 2001-2011
</metadata>
<g transform="translate(0.000000,271.000000) scale(0.100000,-0.100000)"
fill="#769643" stroke="none">
<path d="M1046 2329 c-3 -34 -6 -79 -6 -100 l0 -39 55 0 c41 0 55 4 55 14 0
11 -10 14 -36 11 l-37 -3 5 89 c5 80 4 89 -12 89 -14 0 -18 -12 -24 -61z"/>
<path d="M652 2284 c-12 -8 -22 -21 -22 -29 0 -8 -7 -11 -20 -8 -30 8 -25 -9
27 -84 60 -88 59 -87 78 -79 15 5 14 10 -9 41 l-27 35 23 0 c55 0 66 64 19
111 -34 34 -39 34 -69 13z m54 -49 c13 -20 14 -28 4 -40 -29 -35 -82 5 -60 45
15 27 36 25 56 -5z"/>
<path d="M1485 2219 c-37 -64 -44 -83 -34 -90 21 -13 24 -12 42 26 17 35 17
35 42 19 20 -13 29 -14 38 -5 9 10 9 14 -3 21 -42 26 -42 27 -31 49 12 21 13
21 41 4 22 -13 33 -14 41 -6 8 8 -1 18 -33 37 -25 14 -47 26 -51 26 -3 0 -26
-37 -52 -81z"/>
<path d="M1015 2154 c-107 -21 -140 -30 -204 -56 -415 -164 -632 -628 -491
-1050 74 -223 231 -402 435 -499 333 -157 715 -89 974 172 96 98 159 204 207
349 25 77 28 99 28 235 1 129 -2 161 -22 230 -92 319 -343 548 -667 610 -70
14 -211 18 -260 9z m263 -50 c328 -67 572 -311 638 -638 22 -107 15 -282 -16
-381 -104 -332 -371 -546 -723 -579 l-68 -7 2 101 c2 122 16 155 107 252 73
78 158 137 231 164 28 10 51 21 51 25 0 12 -101 21 -150 14 -27 -4 -67 -21
-100 -44 -45 -30 -58 -45 -69 -81 -36 -117 -47 -144 -60 -148 -10 -3 -12 4 -7
34 3 22 8 66 11 99 17 175 25 216 51 262 39 68 145 134 351 219 48 20 115 50
148 67 l60 31 -45 9 c-25 5 -90 10 -145 10 -89 2 -106 -1 -155 -24 -75 -35
-103 -65 -129 -133 -11 -31 -21 -60 -21 -64 0 -12 -61 -82 -71 -82 -5 0 -7 12
-4 28 6 28 24 309 25 375 0 30 8 47 41 82 47 51 150 122 222 153 26 12 47 24
47 28 0 10 -90 -6 -148 -28 -64 -24 -132 -85 -132 -119 0 -13 -7 -33 -15 -43
-13 -18 -15 -18 -21 -2 -6 16 0 149 11 251 l5 40 -17 -37 c-8 -21 -18 -38 -22
-37 -3 0 -28 45 -56 100 -27 54 -53 99 -56 99 -15 0 14 -107 61 -224 l52 -128
6 -146 c3 -102 2 -143 -6 -138 -16 10 -57 87 -87 166 -30 78 -44 91 -150 137
-66 29 -196 28 -240 -1 l-29 -19 88 -24 c172 -45 345 -163 397 -271 l23 -46
-18 -145 c-10 -80 -20 -152 -21 -161 -2 -8 -4 -23 -4 -32 -1 -22 -20 -23 -65
-1 -27 12 -44 33 -68 79 -29 55 -39 65 -89 90 -55 26 -62 27 -166 21 -59 -3
-122 -11 -139 -17 -17 -6 -53 -36 -79 -67 l-49 -56 50 8 c93 15 266 15 337 0
128 -27 266 -119 253 -169 -12 -47 -21 -189 -21 -317 l0 -136 -40 4 c-342 39
-619 277 -705 608 -29 111 -29 280 -1 390 44 167 138 319 263 425 185 156 443
222 676 174z m-319 -384 c44 -21 63 -38 75 -65 10 -20 16 -38 14 -40 -2 -3
-24 9 -48 26 -51 34 -155 85 -197 96 l-28 7 25 7 c39 12 96 1 159 -31z m656
-240 c18 -7 18 -9 -10 -20 -74 -29 -244 -105 -282 -126 -49 -27 -52 -20 -24
42 31 68 125 113 236 113 33 0 69 -4 80 -9z m-721 -272 c39 -19 75 -62 62 -75
-2 -3 -31 3 -63 13 -44 13 -93 18 -200 18 -79 1 -143 4 -143 7 0 3 8 13 19 23
24 22 87 34 193 35 71 1 96 -3 132 -21z m479 -185 c4 -3 -17 -22 -46 -40 -28
-19 -69 -51 -89 -71 -39 -37 -48 -31 -29 21 11 29 85 83 121 90 14 2 28 5 31
6 3 0 9 -2 12 -6z"/>
<path d="M267 873 l-58 -34 20 -32 c36 -58 109 -61 140 -6 13 24 13 30 -5 64
-11 22 -25 40 -30 41 -5 1 -35 -13 -67 -33z m77 -9 c13 -33 5 -54 -24 -69 -22
-11 -35 -13 -49 -5 -33 17 -29 34 13 62 49 32 52 33 60 12z"/>
<path d="M1896 861 c-4 -5 20 -26 51 -46 55 -35 56 -36 23 -30 -101 17 -117
18 -123 1 -8 -20 109 -104 125 -88 6 6 -11 22 -49 46 l-58 37 50 -7 c128 -20
148 0 57 59 -63 40 -68 42 -76 28z"/>
<path d="M1765 741 c-3 -5 -1 -12 5 -16 5 -3 10 1 10 9 0 18 -6 21 -15 7z"/>
<path d="M419 727 c-55 -42 -90 -80 -82 -88 10 -10 106 65 111 87 4 17 -8 18
-29 1z"/>
<path d="M1752 680 c-53 -22 -47 -106 9 -136 26 -13 32 -13 58 0 50 26 55 73
12 117 -31 31 -42 33 -79 19z m64 -45 c20 -20 23 -29 14 -44 -15 -30 -29 -35
-56 -20 -29 15 -41 53 -24 74 18 22 37 19 66 -10z"/>
<path d="M473 634 c-3 -10 -1 -30 5 -47 6 -16 9 -34 6 -38 -8 -13 -44 9 -44
26 0 8 -4 15 -10 15 -20 0 -9 -40 15 -56 48 -31 87 5 60 56 -9 18 -11 31 -5
35 14 8 30 -3 30 -21 0 -8 4 -14 9 -14 18 0 20 17 5 38 -18 26 -62 29 -71 6z"/>
<path d="M1595 570 c-4 -6 14 -38 38 -71 56 -75 75 -60 22 17 -42 61 -51 69
-60 54z"/>
<path d="M620 554 c0 -4 7 -12 16 -19 15 -10 14 -16 -10 -63 -30 -59 -31 -62
-12 -62 7 0 24 24 38 54 19 42 27 52 39 45 18 -11 29 -11 29 -1 0 4 -20 18
-45 30 -49 24 -55 25 -55 16z"/>
<path d="M1478 507 c-50 -22 -65 -42 -24 -31 21 5 26 0 47 -50 12 -31 29 -56
36 -56 17 0 17 0 -12 66 -20 45 -23 59 -13 66 7 4 16 8 21 8 4 0 7 5 7 10 0
13 -6 12 -62 -13z"/>
<path d="M762 432 c-26 -80 -26 -82 -8 -82 7 0 17 13 22 30 11 35 34 28 36
-11 2 -25 15 -49 28 -49 4 0 4 17 0 39 -5 31 -3 40 12 50 10 6 18 23 18 37 0
19 -8 28 -35 40 -19 7 -38 14 -43 14 -4 0 -18 -31 -30 -68z m72 33 c16 -17 12
-40 -8 -48 -23 -9 -38 8 -30 36 7 31 16 33 38 12z"/>
<path d="M1336 461 c-3 -5 -1 -32 4 -61 11 -60 8 -70 -25 -70 -19 0 -26 8 -34
38 -6 20 -11 47 -11 60 0 13 -6 22 -16 22 -13 0 -15 -7 -9 -42 11 -69 26 -93
60 -96 17 -2 38 3 49 11 16 12 18 22 12 80 -7 62 -17 80 -30 58z"/>
<path d="M940 398 c-6 -24 -15 -55 -20 -70 -8 -25 -5 -38 10 -38 4 0 15 28 25
62 9 34 19 68 22 75 3 7 -2 13 -11 13 -10 0 -19 -15 -26 -42z"/>
<path d="M1050 355 l0 -75 38 0 c21 0 43 5 50 12 14 14 16 54 2 63 -6 4 -5 13
3 26 10 17 9 22 -7 35 -11 8 -35 14 -53 14 l-33 0 0 -75z m68 32 c2 -12 -3
-17 -17 -17 -15 0 -21 6 -21 21 0 25 33 22 38 -4z m6 -53 c9 -22 -1 -34 -29
-34 -18 0 -23 5 -21 25 1 18 7 25 22 25 12 0 25 -7 28 -16z"/>
</g>
</svg>
