<?xml version="1.0" encoding="utf-8"?>
<!-- Svg Vector Icons : http://www.onlinewebfonts.com/icon -->
<!DOCTYPE svg PUBLIC "-//W3C//DTD SVG 1.1//EN" "http://www.w3.org/Graphics/SVG/1.1/DTD/svg11.dtd">
<svg version="1.1" xmlns="http://www.w3.org/2000/svg" xmlns:xlink="http://www.w3.org/1999/xlink" x="0px" y="0px" viewBox="0 0 1000 1000" enable-background="new 0 0 1000 1000" xml:space="preserve">
<metadata> Svg Vector Icons : http://www.onlinewebfonts.com/icon </metadata>
<g fill="#769643"><path d="M838.1,10H161.9C111.4,10,70,51.3,70,101.9v796.3c0,50.5,41.3,91.9,91.9,91.9h676.1c50.5,0,91.9-41.3,91.9-91.9V101.9C930,51.3,888.6,10,838.1,10z M842.5,905.7H157.6V94.3h684.9V905.7z M254.1,560.5h488.6v61.2H254.1V560.5L254.1,560.5z M254.1,683h488.6v61.3H254.1V683L254.1,683z M407.3,361c50.7,0,91.9-41.1,91.9-91.9c0-50.8-41.2-91.9-91.9-91.9c-50.8,0-91.9,41.1-91.9,91.9S356.5,361,407.3,361z M560.4,438c0-33.7-41.4-61.2-91.9-61.2H346c-50.6,0-91.9,27.6-91.9,61.2v61.3h306.3L560.4,438L560.4,438z"/></g>
</svg>